<?xml version="1.0" encoding="UTF-8"?> <svg xmlns="http://www.w3.org/2000/svg" viewBox="0 0 108 108"><defs><style>.cls-1{fill:#fff;}.cls-2{fill:#999;}.cls-3{fill:#ed1846;}</style></defs><g id="Layer_1" data-name="Layer 1"><rect class="cls-1" x="0.38" y="0.38" width="107.25" height="107.25" rx="3.77"></rect><path class="cls-2" d="M104.86,1.75a3.39,3.39,0,0,1,3.39,3.39v99.72a3.39,3.39,0,0,1-3.39,3.39H5.14a3.39,3.39,0,0,1-3.39-3.39V5.14A3.39,3.39,0,0,1,5.14,1.75h99.72m0-.75H5.14A4.15,4.15,0,0,0,1,5.14v99.72A4.15,4.15,0,0,0,5.14,109h99.72a4.15,4.15,0,0,0,4.14-4.14V5.14A4.15,4.15,0,0,0,104.86,1Z" transform="translate(-1 -1)"></path></g><g id="Layer_8" data-name="Layer 8"><polygon class="cls-3" points="85.12 86.2 19.62 86.2 85.12 20.71 85.12 86.2"></polygon></g></svg> 