<?xml version="1.0" encoding="UTF-8"?> <svg xmlns="http://www.w3.org/2000/svg" viewBox="0 0 108 108"><defs><style>.cls-1{fill:#fff;}.cls-2{fill:#999;}.cls-3{fill:#1edcc8;}</style></defs><title>icon_websiteowners</title><g id="Layer_1" data-name="Layer 1"><rect class="cls-1" x="0.38" y="0.38" width="107.25" height="107.25" rx="3.77"></rect><path class="cls-2" d="M104.86,1.75a3.39,3.39,0,0,1,3.39,3.39v99.72a3.39,3.39,0,0,1-3.39,3.39H5.14a3.39,3.39,0,0,1-3.39-3.39V5.14A3.39,3.39,0,0,1,5.14,1.75h99.72m0-.75H5.14A4.15,4.15,0,0,0,1,5.14v99.72A4.15,4.15,0,0,0,5.14,109h99.72a4.15,4.15,0,0,0,4.14-4.14V5.14A4.15,4.15,0,0,0,104.86,1Z" transform="translate(-1 -1)"></path></g><g id="website_owners" data-name="website owners"><path class="cls-3" d="M54.77,22.74A32.75,32.75,0,1,0,87.52,55.49,32.79,32.79,0,0,0,54.77,22.74Z" transform="translate(-1 -1)"></path></g></svg> 