<svg xmlns="http://www.w3.org/2000/svg" viewBox="0 0 28.65 26.31"><defs><style>.cls-1{fill:#55f;}</style></defs><title>linkedin</title><g id="Layer_2" data-name="Layer 2"><g id="Layer_2-2" data-name="Layer 2"><rect class="cls-1" x="0.72" y="8.44" width="5.59" height="17.87"/><path class="cls-1" d="M3.37,6.2h0A3.11,3.11,0,1,1,3.41,0a3.11,3.11,0,1,1,0,6.2Z"/><path class="cls-1" d="M28.65,26.31H22.32V17.06c0-2.42-1-4.07-3.17-4.07a3.2,3.2,0,0,0-3,2.19A4.08,4.08,0,0,0,16,16.64v9.67H9.72s.08-16.38,0-17.87H16v2.81c.37-1.23,2.38-3,5.58-3,4,0,7.09,2.57,7.09,8.11Z"/></g></g></svg>