<svg xmlns="http://www.w3.org/2000/svg" viewBox="0 0 396.15 80.72"><defs><style>.cls-1{fill:#001e5a;}.cls-2{fill:#f01e3c;}.cls-3{fill:#ff646e;}.cls-4{fill:#005050;}.cls-5{fill:#1edcc8;}.cls-6{fill:#55f;}.cls-7{fill:#001eaa;}.cls-8{fill:#ff7800;}.cls-9{fill:#ffbe00;}</style></defs><title>Asset 13</title><g id="Layer_2" data-name="Layer 2"><g id="Layer_2-2" data-name="Layer 2"><rect class="cls-1" width="17.55" height="17.55"/><polygon class="cls-2" points="17.55 52.64 0 52.64 17.55 35.09 17.55 52.64"/><path class="cls-3" d="M28.08,43.87a8.78,8.78,0,0,1,8.77-8.77H17.55V52.64h19.3A8.78,8.78,0,0,1,28.08,43.87Z"/><path class="cls-4" d="M36.85,35.09a8.77,8.77,0,1,0,8.77,8.77,8.78,8.78,0,0,0-8.77-8.77Z"/><path class="cls-5" d="M36.86,0a8.77,8.77,0,0,1,0,17.55h0a8.77,8.77,0,0,1,0,17.55,8.77,8.77,0,0,1,0,17.55h0A26.32,26.32,0,0,0,36.86,0Z"/><path class="cls-6" d="M28.08,8.77A8.78,8.78,0,0,1,36.85,0H17.55V17.55h19.3A8.78,8.78,0,0,1,28.08,8.77Z"/><path class="cls-7" d="M36.85,0a8.77,8.77,0,1,0,8.77,8.77A8.78,8.78,0,0,0,36.85,0Z"/><polygon class="cls-8" points="17.55 65.52 17.55 75.65 8.77 80.72 0 75.65 0 65.52 8.77 60.45 17.55 65.52"/><polygon class="cls-9" points="17.55 65.52 8.77 60.45 0 65.52 0 52.64 17.55 52.64 17.55 65.52"/><polygon class="cls-1" points="200.86 23.66 200.86 32.4 214.3 32.4 214.3 38.51 200.86 38.51 200.86 52.64 194.26 52.64 194.26 17.55 217.64 17.55 217.64 23.66 200.86 23.66"/><path class="cls-1" d="M104.31,23.13A10.85,10.85,0,0,0,100,19a12.91,12.91,0,0,0-6.22-1.48H80.72V52.64h6.61V40.69H93.8A12.91,12.91,0,0,0,100,39.21a10.8,10.8,0,0,0,4.3-4.13,11.61,11.61,0,0,0,1.47-6A11.51,11.51,0,0,0,104.31,23.13ZM93.39,35H87.33V23.29h6.06A5.86,5.86,0,0,1,99.54,29C99.54,33,96.69,35,93.39,35Z"/><path class="cls-1" d="M256.59,51.2a13.18,13.18,0,0,1-5.29-5,14,14,0,0,1-1.9-7.26,13.85,13.85,0,0,1,1.9-7.24,13.29,13.29,0,0,1,5.26-5,16,16,0,0,1,7.67-1.8,14.79,14.79,0,0,1,7.11,1.64,12.76,12.76,0,0,1,4.59,4.72L271,34.16a8.91,8.91,0,0,0-3-2.85,8.61,8.61,0,0,0-9.83,1.39,8.38,8.38,0,0,0-2.36,6.24,8.43,8.43,0,0,0,2.34,6.24,8.65,8.65,0,0,0,9.86,1.39,9.36,9.36,0,0,0,3-2.85l4.93,2.87a12.09,12.09,0,0,1-4.65,4.75A14.49,14.49,0,0,1,264.23,53,16.06,16.06,0,0,1,256.59,51.2Z"/><path class="cls-1" d="M329,31.7a13.16,13.16,0,0,0-5.21-5,16.64,16.64,0,0,0-15,0,13.15,13.15,0,0,0-5.21,5,13.88,13.88,0,0,0-1.66,7.24,14.12,14.12,0,0,0,1.87,7.26,12.54,12.54,0,0,0,5,5,16.64,16.64,0,0,0,15,0,13.1,13.1,0,0,0,5.21-5,14,14,0,0,0,1.66-7.26A13.89,13.89,0,0,0,329,31.7Zm-6.9,13.45a7.84,7.84,0,0,1-5.85,2.36,7.76,7.76,0,0,1-5.83-2.36,8.56,8.56,0,0,1-2.28-6.21,8.56,8.56,0,0,1,2.28-6.21,7.76,7.76,0,0,1,5.83-2.36,7.84,7.84,0,0,1,5.85,2.36,8.5,8.5,0,0,1,2.31,6.21A8.5,8.5,0,0,1,322.13,45.15Z"/><path class="cls-1" d="M350.14,24.92V31c-.55-.1-9.44-.13-9.44,8.31v13.3h-6.42V25.23h6.11v4C342.24,26.36,346.44,24.92,350.14,24.92Z"/><path class="cls-1" d="M189.19,36.93V52.64h-6.42V37c0-5.44-3.51-6.6-5.59-6.6a5.56,5.56,0,0,0-5.65,4.85V52.64h-6.62V17.54h6.62v9.58s2.16-2.06,6.93-2.06C186.48,25.06,189.19,31.44,189.19,36.93Z"/><path class="cls-1" d="M128.33,25.23V27.3c-1.9-1.42-3.45-2.37-8.09-2.37-8.63,0-13.92,6.57-13.92,14,0,7.16,5.29,14.06,13.92,14.06a13.61,13.61,0,0,0,8.09-2.79v2.43h6.61V25.23ZM120.9,47.51c-5.07,0-8.29-3.77-8.29-8.57a8.57,8.57,0,0,1,8.29-8.57,8.28,8.28,0,0,1,8.16,8.57A8.28,8.28,0,0,1,120.9,47.51Z"/><path class="cls-1" d="M239.31,25.23V27.3c-1.9-1.42-3.45-2.37-8.09-2.37-8.63,0-13.92,6.57-13.92,14C217.3,46.1,222.6,53,231.22,53a13.61,13.61,0,0,0,8.09-2.79v2.43h6.61V25.23Zm-7.43,22.28c-5.07,0-8.29-3.77-8.29-8.57a8.57,8.57,0,0,1,8.29-8.57A8.28,8.28,0,0,1,240,38.93,8.28,8.28,0,0,1,231.88,47.51Z"/><polygon class="cls-1" points="390.91 25.23 389.37 25.23 388.76 25.23 387.22 25.23 387.22 25.86 388.76 25.86 388.76 29.03 389.37 29.03 389.37 25.86 390.91 25.86 390.91 25.23"/><polygon class="cls-1" points="395.54 25.23 395.54 25.23 395.54 25.23 394.16 26.66 392.77 25.23 392.16 25.23 392.16 29.03 392.77 29.03 392.77 26.13 394.16 27.55 395.54 26.13 395.54 29.03 396.15 29.03 396.15 25.23 395.54 25.23"/><path class="cls-1" d="M298.75,45.13a7,7,0,0,1-4.56,2.14c-4.19,0-3.9-4.09-3.9-4.09V31.54h8.47V25.23h-8.47V17.54h-6.61v7.68h-5.32v6.31h5.32V43.76c0,6.92,5.62,9.24,10.17,9.24a13.41,13.41,0,0,0,7.83-2.71Z"/><path class="cls-1" d="M158.37,45.13a7,7,0,0,1-4.56,2.14c-4.19,0-3.9-4.09-3.9-4.09V31.54h8.47V25.23h-8.47V17.54H143.3v7.68H138v6.31h5.32V43.76c0,6.92,5.62,9.24,10.17,9.24a13.41,13.41,0,0,0,7.83-2.71Z"/><polygon class="cls-1" points="377.14 25.23 369.77 42.45 368.5 45.44 360.01 25.23 353.17 25.23 365.27 52.99 359.31 66.9 365.93 66.9 383.98 25.23 377.14 25.23"/></g></g></svg>