<svg xmlns="http://www.w3.org/2000/svg" viewBox="0 0 31.18 25.34"><defs><style>.cls-1{fill:#55f;}</style></defs><title>twitter</title><g id="Layer_2" data-name="Layer 2"><g id="Layer_2-2" data-name="Layer 2"><path class="cls-1" d="M28,6.31c0,.27,0,.55,0,.83,0,8.45-6.44,18.2-18.2,18.2A18.1,18.1,0,0,1,0,22.47a12.83,12.83,0,0,0,1.53.09,12.84,12.84,0,0,0,7.95-2.74,6.4,6.4,0,0,1-6-4.44,6.39,6.39,0,0,0,2.89-.11A6.4,6.4,0,0,1,1.25,9V8.91a6.37,6.37,0,0,0,2.9.8,6.4,6.4,0,0,1-2-8.54A18.17,18.17,0,0,0,15.36,7.86,6.4,6.4,0,0,1,26.26,2,12.82,12.82,0,0,0,30.32.47,6.42,6.42,0,0,1,27.51,4a12.81,12.81,0,0,0,3.67-1A13,13,0,0,1,28,6.31Z"/></g></g></svg>